{
	"asset":{
		"generator":"Khronos glTF Blender I/O v4.4.55",
		"version":"2.0"
	},
	"scene":0,
	"scenes":[
		{
			"name":"Scene",
			"nodes":[
				0,
				1,
				2,
				3,
				4,
				5,
				6,
				7,
				8,
				9,
				10,
				11,
				12,
				13,
				14,
				15,
				16,
				17,
				18,
				19,
				20,
				21
			]
		}
	],
	"nodes":[
		{
			"name":"Empty.001",
			"rotation":[
				0,
				0.7071068286895752,
				-0.7071068286895752,
				5.338509012631221e-08
			],
			"scale":[
				3.1685872077941895,
				3.1685872077941895,
				3.1685872077941895
			],
			"translation":[
				-4.693858623504639,
				4.41929292678833,
				-6
			]
		},
		{
			"name":"Empty.002",
			"rotation":[
				-0.5000000596046448,
				-0.5000001192092896,
				-0.4999999403953552,
				0.49999988079071045
			],
			"scale":[
				-3.1685872077941895,
				-3.1685872077941895,
				-3.1685872077941895
			],
			"translation":[
				-12.677358627319336,
				4.440459251403809,
				-0.41207361221313477
			]
		},
		{
			"mesh":0,
			"name":"Cube.012",
			"translation":[
				0,
				4.3748650550842285,
				0
			]
		},
		{
			"mesh":1,
			"name":"Cube.011",
			"translation":[
				0,
				4.3748650550842285,
				0
			]
		},
		{
			"mesh":2,
			"name":"Cube.013",
			"translation":[
				0,
				-0.0031955987215042114,
				-0.007456398103386164
			]
		},
		{
			"mesh":3,
			"name":"Cube.014",
			"translation":[
				0.02428126521408558,
				-0.1556677222251892,
				0.026375435292720795
			]
		},
		{
			"mesh":4,
			"name":"Cube.015",
			"translation":[
				0,
				-0.08124276250600815,
				-0.0314343199133873
			]
		},
		{
			"mesh":5,
			"name":"Cube.016",
			"translation":[
				-0.010778428055346012,
				-0.46568214893341064,
				0.5063180327415466
			]
		},
		{
			"mesh":6,
			"name":"Cube.005",
			"translation":[
				0,
				4.3748650550842285,
				0
			]
		},
		{
			"mesh":7,
			"name":"Icosphere",
			"translation":[
				0,
				4.3748650550842285,
				0
			]
		},
		{
			"mesh":8,
			"name":"Cube.006",
			"translation":[
				0,
				4.3748650550842285,
				0
			]
		},
		{
			"mesh":9,
			"name":"Cube.007",
			"translation":[
				0,
				4.3748650550842285,
				0
			]
		},
		{
			"mesh":10,
			"name":"Cube.008",
			"translation":[
				0,
				4.3748650550842285,
				0
			]
		},
		{
			"mesh":11,
			"name":"Icosphere.001",
			"translation":[
				0,
				4.3748650550842285,
				0
			]
		},
		{
			"mesh":12,
			"name":"Cube.009",
			"translation":[
				0,
				4.3748650550842285,
				0
			]
		},
		{
			"mesh":13,
			"name":"Icosphere.002",
			"translation":[
				0,
				4.3748650550842285,
				0
			]
		},
		{
			"mesh":14,
			"name":"Cube.010",
			"translation":[
				0,
				4.3748650550842285,
				0
			]
		},
		{
			"mesh":15,
			"name":"Cube",
			"translation":[
				0,
				4.3748650550842285,
				0
			]
		},
		{
			"mesh":16,
			"name":"Cube.001",
			"translation":[
				0,
				4.3748650550842285,
				0
			]
		},
		{
			"mesh":17,
			"name":"Cube.002",
			"translation":[
				0,
				4.3748650550842285,
				0
			]
		},
		{
			"mesh":18,
			"name":"Cube.003",
			"translation":[
				0,
				4.3748650550842285,
				0
			]
		},
		{
			"mesh":19,
			"name":"Cube.004",
			"translation":[
				0,
				4.3748650550842285,
				0
			]
		}
	],
	"materials":[
		{
			"doubleSided":true,
			"name":"Body",
			"pbrMetallicRoughness":{
				"baseColorFactor":[
					1,
					0.22337985038757324,
					0.9000502824783325,
					1
				],
				"metallicFactor":0
			}
		},
		{
			"doubleSided":true,
			"name":"Joint",
			"pbrMetallicRoughness":{
				"baseColorFactor":[
					0.036915455013513565,
					0.036915455013513565,
					0.036915455013513565,
					1
				],
				"metallicFactor":0
			}
		}
	],
	"meshes":[
		{
			"name":"Cube.012",
			"primitives":[
				{
					"attributes":{
						"POSITION":0,
						"NORMAL":1,
						"TEXCOORD_0":2
					},
					"indices":3,
					"material":0
				}
			]
		},
		{
			"name":"Cube.011",
			"primitives":[
				{
					"attributes":{
						"POSITION":4,
						"NORMAL":5,
						"TEXCOORD_0":6
					},
					"indices":7,
					"material":1
				}
			]
		},
		{
			"name":"Cube.013",
			"primitives":[
				{
					"attributes":{
						"POSITION":8,
						"NORMAL":9,
						"TEXCOORD_0":10
					},
					"indices":11,
					"material":0
				}
			]
		},
		{
			"name":"Cube.014",
			"primitives":[
				{
					"attributes":{
						"POSITION":12,
						"NORMAL":13,
						"TEXCOORD_0":14
					},
					"indices":15,
					"material":0
				}
			]
		},
		{
			"name":"Cube.015",
			"primitives":[
				{
					"attributes":{
						"POSITION":16,
						"NORMAL":17,
						"TEXCOORD_0":18
					},
					"indices":19,
					"material":1
				}
			]
		},
		{
			"name":"Cube.016",
			"primitives":[
				{
					"attributes":{
						"POSITION":20,
						"NORMAL":21,
						"TEXCOORD_0":22
					},
					"indices":23,
					"material":1
				}
			]
		},
		{
			"name":"Cube.005",
			"primitives":[
				{
					"attributes":{
						"POSITION":24,
						"NORMAL":25,
						"TEXCOORD_0":26
					},
					"indices":27,
					"material":0
				}
			]
		},
		{
			"name":"Icosphere",
			"primitives":[
				{
					"attributes":{
						"POSITION":28,
						"NORMAL":29,
						"TEXCOORD_0":30
					},
					"indices":31,
					"material":1
				}
			]
		},
		{
			"name":"Cube.006",
			"primitives":[
				{
					"attributes":{
						"POSITION":32,
						"NORMAL":33,
						"TEXCOORD_0":34
					},
					"indices":35,
					"material":0
				}
			]
		},
		{
			"name":"Cube.007",
			"primitives":[
				{
					"attributes":{
						"POSITION":36,
						"NORMAL":37,
						"TEXCOORD_0":38
					},
					"indices":39,
					"material":0
				}
			]
		},
		{
			"name":"Cube.008",
			"primitives":[
				{
					"attributes":{
						"POSITION":40,
						"NORMAL":41,
						"TEXCOORD_0":42
					},
					"indices":43,
					"material":0
				}
			]
		},
		{
			"name":"Icosphere.001",
			"primitives":[
				{
					"attributes":{
						"POSITION":44,
						"NORMAL":45,
						"TEXCOORD_0":46
					},
					"indices":47,
					"material":1
				}
			]
		},
		{
			"name":"Cube.009",
			"primitives":[
				{
					"attributes":{
						"POSITION":48,
						"NORMAL":49,
						"TEXCOORD_0":50
					},
					"indices":51,
					"material":0
				}
			]
		},
		{
			"name":"Icosphere.002",
			"primitives":[
				{
					"attributes":{
						"POSITION":52,
						"NORMAL":53,
						"TEXCOORD_0":54
					},
					"indices":55,
					"material":1
				}
			]
		},
		{
			"name":"Cube.010",
			"primitives":[
				{
					"attributes":{
						"POSITION":56,
						"NORMAL":57,
						"TEXCOORD_0":58
					},
					"indices":59,
					"material":0
				}
			]
		},
		{
			"name":"Cube",
			"primitives":[
				{
					"attributes":{
						"POSITION":60,
						"NORMAL":61,
						"TEXCOORD_0":62
					},
					"indices":3,
					"material":0
				}
			]
		},
		{
			"name":"Cube.001",
			"primitives":[
				{
					"attributes":{
						"POSITION":63,
						"NORMAL":64,
						"TEXCOORD_0":65
					},
					"indices":7,
					"material":1
				}
			]
		},
		{
			"name":"Cube.002",
			"primitives":[
				{
					"attributes":{
						"POSITION":66,
						"NORMAL":67,
						"TEXCOORD_0":68
					},
					"indices":69,
					"material":0
				}
			]
		},
		{
			"name":"Cube.003",
			"primitives":[
				{
					"attributes":{
						"POSITION":70,
						"NORMAL":71,
						"TEXCOORD_0":72
					},
					"indices":73,
					"material":0
				}
			]
		},
		{
			"name":"Cube.004",
			"primitives":[
				{
					"attributes":{
						"POSITION":74,
						"NORMAL":75,
						"TEXCOORD_0":76
					},
					"indices":77,
					"material":0
				}
			]
		}
	],
	"accessors":[
		{
			"bufferView":0,
			"componentType":5126,
			"count":32,
			"max":[
				0.4758564531803131,
				4.2782769203186035,
				0.5772143602371216
			],
			"min":[
				-0.017445778474211693,
				3.2844250202178955,
				-0.4935287535190582
			],
			"type":"VEC3"
		},
		{
			"bufferView":1,
			"componentType":5126,
			"count":32,
			"type":"VEC3"
		},
		{
			"bufferView":2,
			"componentType":5126,
			"count":32,
			"type":"VEC2"
		},
		{
			"bufferView":3,
			"componentType":5123,
			"count":48,
			"type":"SCALAR"
		},
		{
			"bufferView":4,
			"componentType":5126,
			"count":20,
			"max":[
				0.20913538336753845,
				3.5068867206573486,
				0.26818230748176575
			],
			"min":[
				-0.024373292922973633,
				2.8433175086975098,
				-0.37990516424179077
			],
			"type":"VEC3"
		},
		{
			"bufferView":5,
			"componentType":5126,
			"count":20,
			"type":"VEC3"
		},
		{
			"bufferView":6,
			"componentType":5126,
			"count":20,
			"type":"VEC2"
		},
		{
			"bufferView":7,
			"componentType":5123,
			"count":30,
			"type":"SCALAR"
		},
		{
			"bufferView":8,
			"componentType":5126,
			"count":48,
			"max":[
				0.47711995244026184,
				8.347702026367188,
				0.9864622354507446
			],
			"min":[
				-0.0025918185710906982,
				7.661693096160889,
				0.4262199103832245
			],
			"type":"VEC3"
		},
		{
			"bufferView":9,
			"componentType":5126,
			"count":48,
			"type":"VEC3"
		},
		{
			"bufferView":10,
			"componentType":5126,
			"count":48,
			"type":"VEC2"
		},
		{
			"bufferView":11,
			"componentType":5123,
			"count":72,
			"type":"SCALAR"
		},
		{
			"bufferView":12,
			"componentType":5126,
			"count":40,
			"max":[
				0.7649708986282349,
				9.007343292236328,
				0.22530832886695862
			],
			"min":[
				0.27362436056137085,
				8.522181510925293,
				-0.12109263241291046
			],
			"type":"VEC3"
		},
		{
			"bufferView":13,
			"componentType":5126,
			"count":40,
			"type":"VEC3"
		},
		{
			"bufferView":14,
			"componentType":5126,
			"count":40,
			"type":"VEC2"
		},
		{
			"bufferView":15,
			"componentType":5123,
			"count":60,
			"type":"SCALAR"
		},
		{
			"bufferView":16,
			"componentType":5126,
			"count":24,
			"max":[
				0.24297140538692474,
				8.570590019226074,
				0.49832990765571594
			],
			"min":[
				0.1701241135597229,
				8.49518871307373,
				0.3974282145500183
			],
			"type":"VEC3"
		},
		{
			"bufferView":17,
			"componentType":5126,
			"count":24,
			"type":"VEC3"
		},
		{
			"bufferView":18,
			"componentType":5126,
			"count":24,
			"type":"VEC2"
		},
		{
			"bufferView":19,
			"componentType":5123,
			"count":36,
			"type":"SCALAR"
		},
		{
			"bufferView":20,
			"componentType":5126,
			"count":24,
			"max":[
				0.12095066905021667,
				8.626919746398926,
				0.4593968093395233
			],
			"min":[
				0.06433983147144318,
				8.506428718566895,
				0.3428449332714081
			],
			"type":"VEC3"
		},
		{
			"bufferView":21,
			"componentType":5126,
			"count":24,
			"type":"VEC3"
		},
		{
			"bufferView":22,
			"componentType":5126,
			"count":24,
			"type":"VEC2"
		},
		{
			"bufferView":23,
			"componentType":5123,
			"count":36,
			"type":"SCALAR"
		},
		{
			"bufferView":24,
			"componentType":5126,
			"count":24,
			"max":[
				0.8391743898391724,
				0.38267064094543457,
				0.5660058259963989
			],
			"min":[
				0.038305383175611496,
				-1.7511879205703735,
				-0.4380286633968353
			],
			"type":"VEC3"
		},
		{
			"bufferView":25,
			"componentType":5126,
			"count":24,
			"type":"VEC3"
		},
		{
			"bufferView":26,
			"componentType":5126,
			"count":24,
			"type":"VEC2"
		},
		{
			"bufferView":27,
			"componentType":5123,
			"count":36,
			"type":"SCALAR"
		},
		{
			"bufferView":28,
			"componentType":5126,
			"count":60,
			"max":[
				0.8272535800933838,
				-1.5529272556304932,
				0.30484771728515625
			],
			"min":[
				0.158286914229393,
				-2.2734055519104004,
				-0.3978082537651062
			],
			"type":"VEC3"
		},
		{
			"bufferView":29,
			"componentType":5126,
			"count":60,
			"type":"VEC3"
		},
		{
			"bufferView":30,
			"componentType":5126,
			"count":60,
			"type":"VEC2"
		},
		{
			"bufferView":31,
			"componentType":5123,
			"count":60,
			"type":"SCALAR"
		},
		{
			"bufferView":32,
			"componentType":5126,
			"count":40,
			"max":[
				0.83939528465271,
				-2.03328275680542,
				0.06923527270555496
			],
			"min":[
				0.31398671865463257,
				-3.9909660816192627,
				-0.5793909430503845
			],
			"type":"VEC3"
		},
		{
			"bufferView":33,
			"componentType":5126,
			"count":40,
			"type":"VEC3"
		},
		{
			"bufferView":34,
			"componentType":5126,
			"count":40,
			"type":"VEC2"
		},
		{
			"bufferView":35,
			"componentType":5123,
			"count":60,
			"type":"SCALAR"
		},
		{
			"bufferView":36,
			"componentType":5126,
			"count":40,
			"max":[
				0.9737443923950195,
				-3.9438893795013428,
				0.9354073405265808
			],
			"min":[
				0.4768228530883789,
				-4.398347854614258,
				-0.32451730966567993
			],
			"type":"VEC3"
		},
		{
			"bufferView":37,
			"componentType":5126,
			"count":40,
			"type":"VEC3"
		},
		{
			"bufferView":38,
			"componentType":5126,
			"count":40,
			"type":"VEC2"
		},
		{
			"bufferView":39,
			"componentType":5123,
			"count":60,
			"type":"SCALAR"
		},
		{
			"bufferView":40,
			"componentType":5126,
			"count":24,
			"max":[
				1.7114825248718262,
				2.673715829849243,
				0.2048487365245819
			],
			"min":[
				0.854472279548645,
				1.6164003610610962,
				-0.40302133560180664
			],
			"type":"VEC3"
		},
		{
			"bufferView":41,
			"componentType":5126,
			"count":24,
			"type":"VEC3"
		},
		{
			"bufferView":42,
			"componentType":5126,
			"count":24,
			"type":"VEC2"
		},
		{
			"bufferView":43,
			"componentType":5123,
			"count":36,
			"type":"SCALAR"
		},
		{
			"bufferView":44,
			"componentType":5126,
			"count":60,
			"max":[
				1.204302191734314,
				2.999612331390381,
				0.20214922726154327
			],
			"min":[
				0.6084031462669373,
				2.347874879837036,
				-0.4140678644180298
			],
			"type":"VEC3"
		},
		{
			"bufferView":45,
			"componentType":5126,
			"count":60,
			"type":"VEC3"
		},
		{
			"bufferView":46,
			"componentType":5126,
			"count":60,
			"type":"VEC2"
		},
		{
			"bufferView":47,
			"componentType":5123,
			"count":60,
			"type":"SCALAR"
		},
		{
			"bufferView":48,
			"componentType":5126,
			"count":24,
			"max":[
				2.4106810092926025,
				1.689298391342163,
				0.07566949725151062
			],
			"min":[
				1.5696907043457031,
				0.6016488075256348,
				-0.2875884175300598
			],
			"type":"VEC3"
		},
		{
			"bufferView":49,
			"componentType":5126,
			"count":24,
			"type":"VEC3"
		},
		{
			"bufferView":50,
			"componentType":5126,
			"count":24,
			"type":"VEC2"
		},
		{
			"bufferView":51,
			"componentType":5123,
			"count":36,
			"type":"SCALAR"
		},
		{
			"bufferView":52,
			"componentType":5126,
			"count":60,
			"max":[
				1.887262225151062,
				1.8860586881637573,
				0.11113247275352478
			],
			"min":[
				1.4480620622634888,
				1.3950169086456299,
				-0.30656740069389343
			],
			"type":"VEC3"
		},
		{
			"bufferView":53,
			"componentType":5126,
			"count":60,
			"type":"VEC3"
		},
		{
			"bufferView":54,
			"componentType":5126,
			"count":60,
			"type":"VEC2"
		},
		{
			"bufferView":55,
			"componentType":5123,
			"count":60,
			"type":"SCALAR"
		},
		{
			"bufferView":56,
			"componentType":5126,
			"count":100,
			"max":[
				2.9107155799865723,
				0.702193021774292,
				0.3448735773563385
			],
			"min":[
				2.2362852096557617,
				-0.06590920686721802,
				-0.3034704923629761
			],
			"type":"VEC3"
		},
		{
			"bufferView":57,
			"componentType":5126,
			"count":100,
			"type":"VEC3"
		},
		{
			"bufferView":58,
			"componentType":5126,
			"count":100,
			"type":"VEC2"
		},
		{
			"bufferView":59,
			"componentType":5123,
			"count":156,
			"type":"SCALAR"
		},
		{
			"bufferView":60,
			"componentType":5126,
			"count":32,
			"max":[
				0.4758564531803131,
				4.4410247802734375,
				0.5772143602371216
			],
			"min":[
				-0.029128650203347206,
				3.2844250202178955,
				-0.4935287535190582
			],
			"type":"VEC3"
		},
		{
			"bufferView":61,
			"componentType":5126,
			"count":32,
			"type":"VEC3"
		},
		{
			"bufferView":62,
			"componentType":5126,
			"count":32,
			"type":"VEC2"
		},
		{
			"bufferView":63,
			"componentType":5126,
			"count":20,
			"max":[
				0.20913538336753845,
				3.5068867206573486,
				0.26818230748176575
			],
			"min":[
				-0.024373292922973633,
				2.8433175086975098,
				-0.37990516424179077
			],
			"type":"VEC3"
		},
		{
			"bufferView":64,
			"componentType":5126,
			"count":20,
			"type":"VEC3"
		},
		{
			"bufferView":65,
			"componentType":5126,
			"count":20,
			"type":"VEC2"
		},
		{
			"bufferView":66,
			"componentType":5126,
			"count":32,
			"max":[
				0.8992322683334351,
				3.0060031414031982,
				0.7763375043869019
			],
			"min":[
				-0.01863030716776848,
				1.460903525352478,
				-0.6655775904655457
			],
			"type":"VEC3"
		},
		{
			"bufferView":67,
			"componentType":5126,
			"count":32,
			"type":"VEC3"
		},
		{
			"bufferView":68,
			"componentType":5126,
			"count":32,
			"type":"VEC2"
		},
		{
			"bufferView":69,
			"componentType":5123,
			"count":48,
			"type":"SCALAR"
		},
		{
			"bufferView":70,
			"componentType":5126,
			"count":20,
			"max":[
				0.5136578679084778,
				1.6589899063110352,
				0.560366690158844
			],
			"min":[
				-0.01169591024518013,
				0.4124586284160614,
				-0.3499118685722351
			],
			"type":"VEC3"
		},
		{
			"bufferView":71,
			"componentType":5126,
			"count":20,
			"type":"VEC3"
		},
		{
			"bufferView":72,
			"componentType":5126,
			"count":20,
			"type":"VEC2"
		},
		{
			"bufferView":73,
			"componentType":5123,
			"count":30,
			"type":"SCALAR"
		},
		{
			"bufferView":74,
			"componentType":5126,
			"count":20,
			"max":[
				0.7656766176223755,
				0.6964297890663147,
				0.6292535662651062
			],
			"min":[
				-0.007856430485844612,
				-0.19531148672103882,
				-0.5125869512557983
			],
			"type":"VEC3"
		},
		{
			"bufferView":75,
			"componentType":5126,
			"count":20,
			"type":"VEC3"
		},
		{
			"bufferView":76,
			"componentType":5126,
			"count":20,
			"type":"VEC2"
		},
		{
			"bufferView":77,
			"componentType":5123,
			"count":30,
			"type":"SCALAR"
		}
	],
	"bufferViews":[
		{
			"buffer":0,
			"byteLength":384,
			"byteOffset":0,
			"target":34962
		},
		{
			"buffer":0,
			"byteLength":384,
			"byteOffset":384,
			"target":34962
		},
		{
			"buffer":0,
			"byteLength":256,
			"byteOffset":768,
			"target":34962
		},
		{
			"buffer":0,
			"byteLength":96,
			"byteOffset":1024,
			"target":34963
		},
		{
			"buffer":0,
			"byteLength":240,
			"byteOffset":1120,
			"target":34962
		},
		{
			"buffer":0,
			"byteLength":240,
			"byteOffset":1360,
			"target":34962
		},
		{
			"buffer":0,
			"byteLength":160,
			"byteOffset":1600,
			"target":34962
		},
		{
			"buffer":0,
			"byteLength":60,
			"byteOffset":1760,
			"target":34963
		},
		{
			"buffer":0,
			"byteLength":576,
			"byteOffset":1820,
			"target":34962
		},
		{
			"buffer":0,
			"byteLength":576,
			"byteOffset":2396,
			"target":34962
		},
		{
			"buffer":0,
			"byteLength":384,
			"byteOffset":2972,
			"target":34962
		},
		{
			"buffer":0,
			"byteLength":144,
			"byteOffset":3356,
			"target":34963
		},
		{
			"buffer":0,
			"byteLength":480,
			"byteOffset":3500,
			"target":34962
		},
		{
			"buffer":0,
			"byteLength":480,
			"byteOffset":3980,
			"target":34962
		},
		{
			"buffer":0,
			"byteLength":320,
			"byteOffset":4460,
			"target":34962
		},
		{
			"buffer":0,
			"byteLength":120,
			"byteOffset":4780,
			"target":34963
		},
		{
			"buffer":0,
			"byteLength":288,
			"byteOffset":4900,
			"target":34962
		},
		{
			"buffer":0,
			"byteLength":288,
			"byteOffset":5188,
			"target":34962
		},
		{
			"buffer":0,
			"byteLength":192,
			"byteOffset":5476,
			"target":34962
		},
		{
			"buffer":0,
			"byteLength":72,
			"byteOffset":5668,
			"target":34963
		},
		{
			"buffer":0,
			"byteLength":288,
			"byteOffset":5740,
			"target":34962
		},
		{
			"buffer":0,
			"byteLength":288,
			"byteOffset":6028,
			"target":34962
		},
		{
			"buffer":0,
			"byteLength":192,
			"byteOffset":6316,
			"target":34962
		},
		{
			"buffer":0,
			"byteLength":72,
			"byteOffset":6508,
			"target":34963
		},
		{
			"buffer":0,
			"byteLength":288,
			"byteOffset":6580,
			"target":34962
		},
		{
			"buffer":0,
			"byteLength":288,
			"byteOffset":6868,
			"target":34962
		},
		{
			"buffer":0,
			"byteLength":192,
			"byteOffset":7156,
			"target":34962
		},
		{
			"buffer":0,
			"byteLength":72,
			"byteOffset":7348,
			"target":34963
		},
		{
			"buffer":0,
			"byteLength":720,
			"byteOffset":7420,
			"target":34962
		},
		{
			"buffer":0,
			"byteLength":720,
			"byteOffset":8140,
			"target":34962
		},
		{
			"buffer":0,
			"byteLength":480,
			"byteOffset":8860,
			"target":34962
		},
		{
			"buffer":0,
			"byteLength":120,
			"byteOffset":9340,
			"target":34963
		},
		{
			"buffer":0,
			"byteLength":480,
			"byteOffset":9460,
			"target":34962
		},
		{
			"buffer":0,
			"byteLength":480,
			"byteOffset":9940,
			"target":34962
		},
		{
			"buffer":0,
			"byteLength":320,
			"byteOffset":10420,
			"target":34962
		},
		{
			"buffer":0,
			"byteLength":120,
			"byteOffset":10740,
			"target":34963
		},
		{
			"buffer":0,
			"byteLength":480,
			"byteOffset":10860,
			"target":34962
		},
		{
			"buffer":0,
			"byteLength":480,
			"byteOffset":11340,
			"target":34962
		},
		{
			"buffer":0,
			"byteLength":320,
			"byteOffset":11820,
			"target":34962
		},
		{
			"buffer":0,
			"byteLength":120,
			"byteOffset":12140,
			"target":34963
		},
		{
			"buffer":0,
			"byteLength":288,
			"byteOffset":12260,
			"target":34962
		},
		{
			"buffer":0,
			"byteLength":288,
			"byteOffset":12548,
			"target":34962
		},
		{
			"buffer":0,
			"byteLength":192,
			"byteOffset":12836,
			"target":34962
		},
		{
			"buffer":0,
			"byteLength":72,
			"byteOffset":13028,
			"target":34963
		},
		{
			"buffer":0,
			"byteLength":720,
			"byteOffset":13100,
			"target":34962
		},
		{
			"buffer":0,
			"byteLength":720,
			"byteOffset":13820,
			"target":34962
		},
		{
			"buffer":0,
			"byteLength":480,
			"byteOffset":14540,
			"target":34962
		},
		{
			"buffer":0,
			"byteLength":120,
			"byteOffset":15020,
			"target":34963
		},
		{
			"buffer":0,
			"byteLength":288,
			"byteOffset":15140,
			"target":34962
		},
		{
			"buffer":0,
			"byteLength":288,
			"byteOffset":15428,
			"target":34962
		},
		{
			"buffer":0,
			"byteLength":192,
			"byteOffset":15716,
			"target":34962
		},
		{
			"buffer":0,
			"byteLength":72,
			"byteOffset":15908,
			"target":34963
		},
		{
			"buffer":0,
			"byteLength":720,
			"byteOffset":15980,
			"target":34962
		},
		{
			"buffer":0,
			"byteLength":720,
			"byteOffset":16700,
			"target":34962
		},
		{
			"buffer":0,
			"byteLength":480,
			"byteOffset":17420,
			"target":34962
		},
		{
			"buffer":0,
			"byteLength":120,
			"byteOffset":17900,
			"target":34963
		},
		{
			"buffer":0,
			"byteLength":1200,
			"byteOffset":18020,
			"target":34962
		},
		{
			"buffer":0,
			"byteLength":1200,
			"byteOffset":19220,
			"target":34962
		},
		{
			"buffer":0,
			"byteLength":800,
			"byteOffset":20420,
			"target":34962
		},
		{
			"buffer":0,
			"byteLength":312,
			"byteOffset":21220,
			"target":34963
		},
		{
			"buffer":0,
			"byteLength":384,
			"byteOffset":21532,
			"target":34962
		},
		{
			"buffer":0,
			"byteLength":384,
			"byteOffset":21916,
			"target":34962
		},
		{
			"buffer":0,
			"byteLength":256,
			"byteOffset":22300,
			"target":34962
		},
		{
			"buffer":0,
			"byteLength":240,
			"byteOffset":22556,
			"target":34962
		},
		{
			"buffer":0,
			"byteLength":240,
			"byteOffset":22796,
			"target":34962
		},
		{
			"buffer":0,
			"byteLength":160,
			"byteOffset":23036,
			"target":34962
		},
		{
			"buffer":0,
			"byteLength":384,
			"byteOffset":23196,
			"target":34962
		},
		{
			"buffer":0,
			"byteLength":384,
			"byteOffset":23580,
			"target":34962
		},
		{
			"buffer":0,
			"byteLength":256,
			"byteOffset":23964,
			"target":34962
		},
		{
			"buffer":0,
			"byteLength":96,
			"byteOffset":24220,
			"target":34963
		},
		{
			"buffer":0,
			"byteLength":240,
			"byteOffset":24316,
			"target":34962
		},
		{
			"buffer":0,
			"byteLength":240,
			"byteOffset":24556,
			"target":34962
		},
		{
			"buffer":0,
			"byteLength":160,
			"byteOffset":24796,
			"target":34962
		},
		{
			"buffer":0,
			"byteLength":60,
			"byteOffset":24956,
			"target":34963
		},
		{
			"buffer":0,
			"byteLength":240,
			"byteOffset":25016,
			"target":34962
		},
		{
			"buffer":0,
			"byteLength":240,
			"byteOffset":25256,
			"target":34962
		},
		{
			"buffer":0,
			"byteLength":160,
			"byteOffset":25496,
			"target":34962
		},
		{
			"buffer":0,
			"byteLength":60,
			"byteOffset":25656,
			"target":34963
		}
	],
	"buffers":[
		{
			"byteLength":25716,
			"uri":"pigman.bin"
		}
	]
}
