{
	"asset":{
		"generator":"Khronos glTF Blender I/O v4.4.55",
		"version":"2.0"
	},
	"scene":0,
	"scenes":[
		{
			"name":"Scene",
			"nodes":[
				0
			]
		}
	],
	"nodes":[
		{
			"mesh":0,
			"name":"Character"
		}
	],
	"materials":[
		{
			"doubleSided":true,
			"name":"Texture",
			"pbrMetallicRoughness":{
				"baseColorTexture":{
					"index":0
				},
				"metallicFactor":0,
				"roughnessFactor":0.5
			}
		}
	],
	"meshes":[
		{
			"name":"Cube.010",
			"primitives":[
				{
					"attributes":{
						"POSITION":0,
						"NORMAL":1,
						"TEXCOORD_0":2
					},
					"indices":3,
					"material":0
				}
			]
		}
	],
	"textures":[
		{
			"sampler":0,
			"source":0
		}
	],
	"images":[
		{
			"mimeType":"image/png",
			"name":"texture_img",
			"uri":"texture_img.png"
		}
	],
	"accessors":[
		{
			"bufferView":0,
			"componentType":5126,
			"count":1260,
			"max":[
				2.9107155799865723,
				8.815889358520508,
				0.9354073405265808
			],
			"min":[
				-2.9107155799865723,
				-0.023482799530029297,
				-0.6655775904655457
			],
			"type":"VEC3"
		},
		{
			"bufferView":1,
			"componentType":5126,
			"count":1260,
			"type":"VEC3"
		},
		{
			"bufferView":2,
			"componentType":5126,
			"count":1260,
			"type":"VEC2"
		},
		{
			"bufferView":3,
			"componentType":5123,
			"count":1500,
			"type":"SCALAR"
		}
	],
	"bufferViews":[
		{
			"buffer":0,
			"byteLength":15120,
			"byteOffset":0,
			"target":34962
		},
		{
			"buffer":0,
			"byteLength":15120,
			"byteOffset":15120,
			"target":34962
		},
		{
			"buffer":0,
			"byteLength":10080,
			"byteOffset":30240,
			"target":34962
		},
		{
			"buffer":0,
			"byteLength":3000,
			"byteOffset":40320,
			"target":34963
		}
	],
	"samplers":[
		{
			"magFilter":9729,
			"minFilter":9987
		}
	],
	"buffers":[
		{
			"byteLength":43320,
			"uri":"rigbody.bin"
		}
	]
}
